<svg xmlns="http://www.w3.org/2000/svg" width="14.631" height="14.595" viewBox="0 0 14.631 14.595">
  <g id="Group_62" data-name="Group 62" transform="translate(-2 -2.76)">
    <g id="e7WdGhBIZD915_to" transform="translate(16 12.5)">
      <rect id="e7WdGhBIZD915" height="1" transform="translate(-6 -0.5)" fill="#ebaf26"/>
    </g>
    <g id="e7WdGhBIZD916_to" transform="translate(16.799 14.694)">
      <rect id="e7WdGhBIZD916" height="1" transform="translate(-6.799 -0.694)" fill="#ebaf26"/>
    </g>
    <g id="e7WdGhBIZD917_to">
      <g id="e7WdGhBIZD917">
        <g id="e7WdGhBIZD918_to" transform="translate(9.315 10.057)">
          <path id="e7WdGhBIZD918" d="M2.378,13a8.137,8.137,0,0,1-1.8-2.656A8.359,8.359,0,0,1,0,7.285,8.275,8.275,0,0,1,2.454,1.543a9.464,9.464,0,0,1,.755-.68c.38-.306.871.133.744.6a7.911,7.911,0,0,0-.26,1.72,9.271,9.271,0,0,0,.531,3.39A7.4,7.4,0,0,0,5.97,9.385,7.476,7.476,0,0,0,8.8,11.156a9.2,9.2,0,0,0,3.364.531,8.005,8.005,0,0,0,1.762-.27c.469-.128.9.359.6.739a9.472,9.472,0,0,1-.693.77,8.154,8.154,0,0,1-2.707,1.821,7.867,7.867,0,0,1-3.036.607A8,8,0,0,1,5.034,14.8,8.136,8.136,0,0,1,2.378,13Z" transform="translate(-7.315 -8.058)" fill="#6d7175"/>
        </g>
      </g>
    </g>
  </g>
</svg>
