<?xml version="1.0" encoding="utf-8"?>
<!-- Generator: Adobe Illustrator 27.3.1, SVG Export Plug-In . SVG Version: 6.00 Build 0)  -->
<svg version="1.1" id="Layer_1" xmlns="http://www.w3.org/2000/svg" xmlns:xlink="http://www.w3.org/1999/xlink" x="0px" y="0px"
	 viewBox="0 0 100 102.5" style="enable-background:new 0 0 100 102.5;" xml:space="preserve">
<g>
	<path d="M46.3,14.9v7.6c-5.6,1.6-9.7,6.7-9.7,12.7s4.1,11.1,9.7,12.7v37.2c0,2,1.6,3.7,3.7,3.7c2,0,3.7-1.6,3.7-3.7V48
		c5.6-1.6,9.7-6.7,9.7-12.7s-4.1-11.1-9.7-12.7V15c0-2-1.6-3.7-3.7-3.7C48,11.2,46.3,12.8,46.3,14.9z M56,35.2c0,3.2-2.6,6-6,6
		s-6-2.6-6-6s2.6-6,6-6S56,32,56,35.2z"/>
	<path d="M24.4,85.1v-7.9c5.6-1.6,9.7-6.7,9.7-12.7S30,53.4,24.4,51.8V14.9c0-2-1.6-3.7-3.7-3.7S17,12.8,17,14.9v36.9
		c-5.6,1.6-9.7,6.7-9.7,12.7s4.1,11.1,9.7,12.7v7.9c0,2,1.6,3.7,3.7,3.7S24.4,87.2,24.4,85.1z M14.7,64.5c0-3.2,2.6-6,6-6s6,2.6,6,6
		s-2.8,6-6,6S14.7,67.7,14.7,64.5z"/>
	<path d="M75.6,14.9v36.9c-5.6,1.6-9.7,6.7-9.7,12.7s4.1,11.1,9.7,12.7v7.9c0,2,1.6,3.7,3.7,3.7s3.7-1.6,3.7-3.7v-7.9
		c5.6-1.6,9.7-6.7,9.7-12.7S88.6,53.4,83,51.8V14.9c0-2-1.6-3.7-3.7-3.7S75.6,12.8,75.6,14.9z M85.3,64.5c0,3.2-2.6,6-6,6
		s-6-2.6-6-6s2.6-6,6-6S85.3,61.3,85.3,64.5z"/>
</g>
</svg>
